<svg xmlns="http://www.w3.org/2000/svg" fill-rule="evenodd" stroke-linejoin="round" stroke-miterlimit="2" clip-rule="evenodd" viewBox="0 0 128 128"><path fill="#0071f7" fill-rule="nonzero" d="M126.871 90.812c1.598 2.237 1.279 5.113-.639 6.711-2.237 1.598-5.432 1.279-7.03-.639l-11.185-14.381-10.866 14.062c-1.598 2.237-4.794 2.237-7.031.639s-2.556-4.474-.958-6.711l12.783-16.618-12.783-16.618c-1.598-2.237-.959-5.433.958-7.031 2.237-1.598 5.433-.959 7.031.959l10.866 14.381 11.185-13.742c1.598-2.237 4.474-2.557 7.03-.959 2.237 1.598 2.237 4.794.639 7.031l-12.463 16.298 12.463 16.618zm-58.162-1.917c-8.309 0-15.02-6.392-15.02-14.701 0-7.989 6.711-14.7 15.02-14.7s15.02 6.711 15.02 14.7c-.32 8.309-7.031 14.701-15.02 14.701zm-44.102 0c-8.309 0-15.02-6.392-15.02-14.701 0-7.989 6.711-14.7 15.02-14.7s15.02 6.711 15.02 14.7c0 8.309-6.711 14.701-15.02 14.701zm44.102-38.988c-9.268 0-17.577 5.113-21.731 12.783-4.155-7.67-12.464-12.783-22.051-12.783-5.752 0-10.866 1.917-15.02 4.793V34.247c0-2.556-2.237-4.793-4.794-4.793C2.237 29.454 0 31.691 0 34.247v40.267c.32 13.422 11.185 23.968 24.607 23.968 9.588 0 17.897-5.433 22.051-13.103 4.154 7.67 12.463 13.103 21.731 13.103 13.742 0 24.927-10.866 24.927-24.607.32-13.103-10.866-23.968-24.607-23.968z"/></svg>