<svg xmlns="http://www.w3.org/2000/svg" fill-rule="evenodd" stroke-linejoin="round" stroke-miterlimit="2" clip-rule="evenodd" viewBox="0 0 264 264"><path fill="none" d="M0 0h263.68v263.68H0z"/><g fill-rule="nonzero"><path fill="#016afe" d="M175.003 167.052c-7.53 6.683-16.935 14.995-33.987 14.995h-10.199c-12.339 0-23.567-4.479-31.595-12.608-7.848-7.947-12.171-18.82-12.171-30.623v-13.95c0-11.805 4.323-22.676 12.171-30.62 8.028-8.127 19.256-12.607 31.595-12.607h10.199c17.075 0 26.457 8.306 33.987 14.989 7.822 6.894 14.565 12.914 32.555 12.914 2.745 0 5.484-.218 8.195-.653l-.068-.162a61.268 61.268 0 0 0-3.776-7.771l-12.026-20.828a61.77 61.77 0 0 0-53.491-30.881H122.34a61.773 61.773 0 0 0-53.496 30.881l-12.027 20.828a61.81 61.81 0 0 0 0 61.775l12.027 20.822a61.77 61.77 0 0 0 53.496 30.881h24.052a61.769 61.769 0 0 0 53.491-30.881l12.026-20.796a60.864 60.864 0 0 0 3.776-7.77l.068-.145a50.047 50.047 0 0 0-8.195-.693c-17.99 0-24.733 5.987-32.555 12.909"/><path fill="#016afe" d="M141.017 94.281H130.82c-18.782 0-31.127 13.415-31.127 30.585v13.95c0 17.176 12.345 30.586 31.127 30.586h10.197c27.367 0 25.22-27.903 66.543-27.903a62.972 62.972 0 0 1 11.67 1.071 61.624 61.624 0 0 0 0-21.459 63.357 63.357 0 0 1-11.67 1.071c-41.341 0-39.176-27.901-66.543-27.901z"/><path fill="#016afe" d="M242.975 152.77a57.658 57.658 0 0 0-23.735-10.203v.206a61.99 61.99 0 0 1-3.448 12.021 45.231 45.231 0 0 1 19.624 8.083c0 .056-.033.123-.055.189-17.242 55.827-76.489 87.116-132.322 69.873-55.832-17.242-87.121-76.488-69.873-132.32 17.243-55.832 76.484-87.121 132.317-69.873a105.801 105.801 0 0 1 69.878 69.873c0 .061.033.133.055.189a45.13 45.13 0 0 1-19.624 8.072 62.263 62.263 0 0 1 3.448 12.037c-.005.062-.005.13 0 .197a57.767 57.767 0 0 0 23.735-10.197c6.766-5.01 5.455-10.671 4.429-14.019-19.3-62.593-85.681-97.686-148.275-78.39-62.594 19.3-97.691 85.686-78.39 148.279 19.3 62.588 85.686 97.68 148.274 78.386a118.611 118.611 0 0 0 78.391-78.386c1.026-3.352 2.337-9.009-4.429-14.017z"/><path fill="#4fc5d5" d="M215.751 108.882c-2.705.451-5.45.68-8.195.691-17.983 0-24.733-5.991-32.544-12.914-7.54-6.687-16.924-14.999-33.993-14.999h-10.203c-12.344 0-23.561 4.485-31.595 12.612-7.848 7.944-12.166 18.816-12.166 30.62v13.955c0 11.804 4.318 22.671 12.166 30.62 8.034 8.127 19.251 12.606 31.595 12.606h10.203c17.069 0 26.453-8.311 33.993-14.993 7.811-6.89 14.561-12.909 32.544-12.909 2.745 0 5.49.219 8.195.653a61.314 61.314 0 0 0 3.448-12.021v-.213a64.554 64.554 0 0 0-11.675-1.065c-41.341 0-39.176 27.913-66.543 27.913h-10.198c-18.782 0-31.12-13.421-31.12-30.591v-13.984c0-17.164 12.338-30.585 31.12-30.585h10.198c27.367 0 25.218 27.902 66.543 27.902a62.98 62.98 0 0 0 11.675-1.071v-.189a62.15 62.15 0 0 0-3.448-12.038z"/><path fill="#4fc5d5" d="M215.751 108.882c-2.705.451-5.45.68-8.195.691-17.983 0-24.733-5.991-32.544-12.914-7.54-6.687-16.924-14.999-33.993-14.999h-10.203c-12.344 0-23.561 4.485-31.595 12.612-7.848 7.944-12.166 18.816-12.166 30.62v13.955c0 11.804 4.318 22.671 12.166 30.62 8.034 8.127 19.251 12.606 31.595 12.606h10.203c17.069 0 26.453-8.311 33.993-14.993 7.811-6.89 14.561-12.909 32.544-12.909 2.745 0 5.49.219 8.195.653a61.314 61.314 0 0 0 3.448-12.021v-.213a64.554 64.554 0 0 0-11.675-1.065c-41.341 0-39.176 27.913-66.543 27.913h-10.198c-18.782 0-31.12-13.421-31.12-30.591v-13.984c0-17.164 12.338-30.585 31.12-30.585h10.198c27.367 0 25.218 27.902 66.543 27.902a62.98 62.98 0 0 0 11.675-1.071v-.189a62.15 62.15 0 0 0-3.448-12.038z"/></g></svg>