<svg xmlns="http://www.w3.org/2000/svg" fill-rule="evenodd" stroke-linejoin="round" stroke-miterlimit="2" clip-rule="evenodd" viewBox="0 0 128 128"><g fill-rule="nonzero"><path fill="#fdbf00" d="M128 34v60c0 6.225-5.025 11.25-11.25 11.25H11.25A11.235 11.235 0 0 1 0 94V34c0-3.075 1.275-5.85 3.225-7.875H3.3l58.3 33.3c.75.525 1.575.825 2.4.825s1.65-.3 2.4-.825l58.3-33.3h.075C126.725 28.15 128 30.925 128 34z"/><path fill="#ff9f00" d="M128 34v60c0 6.225-5.025 11.25-11.25 11.25H64v-45c.825 0 1.65-.3 2.4-.825l58.3-33.3h.075C126.725 28.15 128 30.925 128 34z"/><path fill="#ffde46" d="M124.7 26.05v.075l-58.3 48.3c-.75.525-1.575.825-2.4.825s-1.65-.3-2.4-.825l-58.3-48.3v-.075a11.29 11.29 0 0 1 7.95-3.3h105.5a11.29 11.29 0 0 1 7.95 3.3z"/><path fill="#ffd400" d="M124.7 26.05v.075l-58.3 48.3c-.75.525-1.575.825-2.4.825v-52.5h52.75a11.29 11.29 0 0 1 7.95 3.3z"/></g></svg>