<svg xmlns="http://www.w3.org/2000/svg" fill-rule="evenodd" stroke-linejoin="round" stroke-miterlimit="2" clip-rule="evenodd" viewBox="0 0 198 198"><path fill="none" d="M0 0h197.765v197.765H0z"/><path fill="#00a82d" fill-rule="nonzero" d="M71.585 51.777c0 1.702-.141 4.54-1.843 6.384-1.845 1.702-4.682 1.844-6.384 1.844H45.2c-5.249 0-8.37 0-10.498.284-1.135.141-2.553.709-3.262.993-.284.141-.284 0-.142-.142L72.72 19.008c.143-.142.284-.142.143.142-.285.709-.852 2.127-.994 3.262-.284 2.128-.284 5.249-.284 10.498v18.867zm38.586 127.389c-4.823-3.12-7.376-7.234-8.369-9.788a20.695 20.695 0 0 1-1.561-7.802c0-11.774 9.646-21.421 21.563-21.421a6.357 6.357 0 0 1 6.383 6.384c0 2.412-1.276 4.398-3.262 5.532-.71.426-1.703.709-2.412.851-.709.142-3.405.426-4.681 1.561-1.419 1.135-2.554 2.979-2.554 4.965 0 2.128.851 4.114 2.27 5.532 2.553 2.554 5.958 3.972 9.646 3.972 9.646 0 17.449-7.802 17.449-17.448 0-8.653-5.816-16.314-13.477-19.719-1.134-.567-2.979-.993-4.681-1.418-2.128-.426-4.114-.709-4.256-.709-5.958-.71-20.853-5.391-21.846-18.584 0 0-4.398 19.86-13.193 25.251-.851.426-1.986.851-3.263 1.135-1.276.284-2.695.425-3.121.425-14.327.852-29.506-3.688-40.004-14.469 0 0-7.093-5.817-10.781-22.13-.851-3.972-2.554-11.065-3.547-17.732-.425-2.412-.567-4.257-.709-5.958 0-6.952 4.256-11.633 9.647-12.342h28.939c4.965 0 7.802-1.277 9.646-2.979 2.412-2.27 2.979-5.533 2.979-9.363V22.98c.709-5.249 5.391-9.647 12.342-9.647h3.405c1.418 0 3.121.142 4.681.284 1.135.142 2.128.426 3.83.851 8.653 2.128 10.498 10.923 10.498 10.923s16.313 2.838 24.541 4.256c7.802 1.419 27.095 2.695 30.784 22.13 8.653 46.246 3.404 91.074 2.978 91.074-6.099 43.692-42.415 41.564-42.415 41.564-7.802 0-13.619-2.553-17.449-5.249m32.628-92.917c-4.681-.426-8.654 1.418-10.072 4.965-.284.709-.568 1.56-.426 1.986.142.425.426.567.71.709 1.702.851 4.539 1.277 8.653 1.702 4.114.426 6.951.71 8.795.426.284 0 .567-.142.851-.567.284-.426.142-1.277.142-1.986-.567-3.973-3.972-6.668-8.653-7.235"/></svg>