<svg xmlns="http://www.w3.org/2000/svg" fill-rule="evenodd" stroke-linejoin="round" stroke-miterlimit="2" clip-rule="evenodd" viewBox="0 0 171 171"><g fill-rule="nonzero"><path fill="#ffc107" d="M151.111 35.556H75.1L62.436 22.897a5.316 5.316 0 0 0-3.769-1.564H19.556C8.768 21.333 0 30.101 0 40.889v88.888c0 10.788 8.768 19.556 19.556 19.556h131.555c10.788 0 19.556-8.768 19.556-19.556V55.111c0-10.787-8.768-19.555-19.556-19.555z"/><path fill="#ffa000" d="M58.667 21.333H19.556C8.768 21.333 0 30.101 0 40.889v88.888c0 10.788 8.768 19.556 19.556 19.556h65.777V35.556H75.1L62.436 22.897a5.316 5.316 0 0 0-3.769-1.564z"/></g></svg>