<svg xmlns="http://www.w3.org/2000/svg" fill-rule="evenodd" stroke-linejoin="round" stroke-miterlimit="2" clip-rule="evenodd" viewBox="0 0 1067 1067"><clipPath id="a"><path d="M154.167 248.958H912.5v568.75H154.167z"/></clipPath><g fill-rule="nonzero" clip-path="url(#a)"><path fill="#4285f4" d="M205.871 817.708h120.644V524.716L154.167 395.455v370.549c0 28.61 23.181 51.704 51.704 51.704"/><path fill="#34a853" d="M740.152 817.708h120.643c28.61 0 51.705-23.181 51.705-51.704V395.455L740.152 524.716"/><path fill="#fbbc04" d="M740.152 300.663v224.053L912.5 395.455v-68.94c0-63.941-72.99-100.393-124.091-62.045"/><path fill="#ea4335" d="M326.515 524.716V300.663l206.818 155.114 206.819-155.114v224.053L533.333 679.83"/><path fill="#c5221f" d="M154.167 326.515v68.94l172.348 129.261V300.663l-48.257-36.193c-51.188-38.348-124.091-1.896-124.091 62.045"/></g></svg>