<?xml version="1.0" encoding="UTF-8" standalone="no"?><!DOCTYPE svg PUBLIC "-//W3C//DTD SVG 1.1//EN" "http://www.w3.org/Graphics/SVG/1.1/DTD/svg11.dtd"><svg width="100%" height="100%" viewBox="0 0 62 62" version="1.1" xmlns="http://www.w3.org/2000/svg" xmlns:xlink="http://www.w3.org/1999/xlink" xml:space="preserve" xmlns:serif="http://www.serif.com/" style="fill-rule:evenodd;clip-rule:evenodd;stroke-linejoin:round;stroke-miterlimit:2;"><g id="Google-Button"><g id="btn_google_light_normal"><g id="logo_googleg_48dp"><path id="Shape" d="M56.267,31.273c-0,-1.891 -0.17,-3.709 -0.485,-5.455l-25.115,0l-0,10.315l14.351,0c-0.618,3.334 -2.497,6.158 -5.321,8.049l-0,6.691l8.618,-0c5.043,-4.643 7.952,-11.479 7.952,-19.6Z" style="fill:#4285f4;"/><path id="Shape1" serif:id="Shape" d="M30.667,57.333c7.2,0 13.236,-2.388 17.648,-6.46l-8.618,-6.691c-2.388,1.6 -5.442,2.545 -9.03,2.545c-6.946,0 -12.825,-4.691 -14.922,-10.994l-8.909,0l0,6.909c4.388,8.716 13.406,14.691 23.831,14.691Z" style="fill:#34a853;"/><path id="Shape2" serif:id="Shape" d="M15.745,35.733c-0.533,-1.6 -0.836,-3.309 -0.836,-5.066c0,-1.758 0.303,-3.467 0.836,-5.067l0,-6.909l-8.909,-0c-1.806,3.6 -2.836,7.673 -2.836,11.976c0,4.303 1.03,8.375 2.836,11.975l8.909,-6.909Z" style="fill:#fbbc05;"/><path id="Shape3" serif:id="Shape" d="M30.667,14.606c3.915,0 7.43,1.346 10.194,3.988l7.648,-7.649c-4.618,-4.303 -10.654,-6.945 -17.842,-6.945c-10.425,0 -19.443,5.976 -23.831,14.691l8.909,6.909c2.097,-6.303 7.976,-10.994 14.922,-10.994Z" style="fill:#ea4335;"/><rect id="Shape4" serif:id="Shape" x="4" y="4" width="53.333" height="53.333" style="fill:none;"/></g></g></g></svg>