<svg xmlns="http://www.w3.org/2000/svg" xmlns:xlink="http://www.w3.org/1999/xlink" width="500" height="500" viewBox="0 0 132.292 132.292"><defs><linearGradient id="a"><stop offset="0" stop-color="#4d4dbd"/><stop offset="1" stop-color="#5bc5fa"/></linearGradient><linearGradient xlink:href="#a" id="b" x1="119.686" x2="119.686" y1="15.92" y2="117.817" gradientTransform="translate(-86.505 -20.027) scale(1.28937)" gradientUnits="userSpaceOnUse"/></defs><rect width="129.635" height="131" x="1.218" y=".734" fill="url(#b)" fill-rule="evenodd" ry="29.981"/><path fill="none" stroke="#fff" stroke-width="3.753" d="M36.004 93.435h60.392c7.304 0 16.13-6.432 16.025-16.627-.109-10.424-8.083-15.766-14.732-16.8C96.49 42.87 85.165 35.024 72.79 35.024c-11.276 0-16.967 6.194-21.883 13.784-2.194-.949-4.34-2.02-8.098-1.981-6.57.068-11.286 5.482-11.286 11.2-7.162 2.82-12.083 7.932-12.234 17.402-.135 8.471 7.576 18.006 16.714 18.006z"/></svg>