<svg xmlns="http://www.w3.org/2000/svg" fill-rule="evenodd" stroke-linejoin="round" stroke-miterlimit="2" clip-rule="evenodd" viewBox="0 0 128 128"><g fill-rule="nonzero"><path fill="#0364b8" d="m77.33 78.338 26.421-25.267c-5.488-21.4-27.285-34.299-48.685-28.811A40.002 40.002 0 0 0 31.59 41.016c.409-.01 45.74 37.322 45.74 37.322z"/><path fill="#0078d4" d="m48.809 45.773-.001.004a31.842 31.842 0 0 0-16.809-4.771c-.138 0-.272.008-.409.01C13.926 41.235-.216 55.732.003 73.395a31.984 31.984 0 0 0 5.746 17.9l39.583-4.958 30.347-24.47-26.87-16.094z"/><path fill="#1490df" d="M103.751 53.071a26.136 26.136 0 0 0-1.755-.066 25.921 25.921 0 0 0-10.305 2.127l-.001-.002-16.011 6.737L93.33 83.671l31.555 7.67c6.81-12.641 2.082-28.41-10.56-35.22a26.012 26.012 0 0 0-10.574-3.05z"/><path fill="#28a8ea" d="M5.749 91.295a31.953 31.953 0 0 0 26.25 13.708h69.997a25.992 25.992 0 0 0 22.889-13.661L75.679 61.867 5.749 91.295z"/></g></svg>