<svg xmlns="http://www.w3.org/2000/svg" fill-rule="evenodd" stroke-linejoin="round" stroke-miterlimit="2" clip-rule="evenodd" viewBox="0 0 128 128"><clipPath id="a"><path d="M.804 5.213h126.392v117.574H.804z"/></clipPath><g fill-rule="nonzero" clip-path="url(#a)"><path fill="#0a2767" d="M127.196 66.939a2.823 2.823 0 0 0-1.346-2.425h-.015l-.053-.029L81.986 38.56a5.882 5.882 0 0 0-6.567 0L31.623 64.485l-.053.029a2.854 2.854 0 0 0 .068 4.888l43.796 25.925a5.876 5.876 0 0 0 6.567 0l43.796-25.925a2.818 2.818 0 0 0 1.399-2.463z"/><path fill="#0364b8" d="M36.729 49.63H65.47v26.345H36.729V49.63zm84.588-26.781V10.798a5.461 5.461 0 0 0-5.329-5.585H41.405a5.461 5.461 0 0 0-5.329 5.585v12.051l44.09 11.758 41.151-11.758z"/><path fill="#0078d4" d="M36.076 22.849h29.393v26.454H36.076z"/><path fill="#28a8ea" d="M94.863 22.849H65.47v26.454l29.393 26.454h26.454V49.303L94.863 22.849z"/><path fill="#0078d4" d="M65.47 49.303h29.393v26.454H65.47z"/><path fill="#0364b8" d="M65.47 75.757h29.393v26.454H65.47z"/><path fill="#14447d" d="M36.729 75.975H65.47v23.95H36.729z"/><path fill="#0078d4" d="M94.863 75.757h26.454v26.454H94.863z"/><path fill="url(#b)" d="m125.85 69.241-.056.029-43.797 24.632a7.473 7.473 0 0 1-.587.329 6.116 6.116 0 0 1-2.375.588l-2.393-1.399a6.344 6.344 0 0 1-.588-.338L31.67 67.751h-.02l-1.452-.812v49.863a6.025 6.025 0 0 0 6.063 5.985h84.965c.05 0 .094-.024.147-.024a7.423 7.423 0 0 0 2.057-.429c.287-.121.563-.265.826-.429.197-.112.535-.356.535-.356a5.936 5.936 0 0 0 2.405-4.747V66.939a2.648 2.648 0 0 1-1.346 2.302z"/><path fill="#0a2767" fill-opacity=".5" d="M124.844 66.742v3.057L79.049 101.33 31.638 67.771a.03.03 0 0 0-.03-.029l-4.35-2.616v-2.205l1.793-.029 3.792 2.175.088.029.323.206s44.561 25.425 44.678 25.484l1.705.999c.147-.058.294-.117.47-.176.089-.059 44.237-24.896 44.237-24.896l.5.029z"/><path fill="#1490df" d="m125.85 69.241-.056.032-43.797 24.632a6.14 6.14 0 0 1-6.566 0L31.635 69.273l-.053-.032a2.644 2.644 0 0 1-1.384-2.302v49.863a6.023 6.023 0 0 0 6.06 5.985h84.877a6.023 6.023 0 0 0 6.061-5.984V66.939a2.648 2.648 0 0 1-1.346 2.302z"/><path fill-opacity=".1" d="m82.635 93.54-.655.368a6.09 6.09 0 0 1-2.898.943l16.663 19.706 29.067 7.004a6.002 6.002 0 0 0 1.843-2.301l-44.02-25.72z"/><path fill-opacity=".05" d="m85.604 91.871-3.624 2.037a6.09 6.09 0 0 1-2.898.943l7.807 21.525 37.932 5.176a5.944 5.944 0 0 0 2.375-4.75v-.644L85.604 91.871z"/><path fill="#28a8ea" d="M36.341 122.787h84.785a6.101 6.101 0 0 0 3.63-1.176L76.639 93.426a6.344 6.344 0 0 1-.588-.338L31.667 67.756h-.02l-1.449-.817v49.693a6.149 6.149 0 0 0 6.143 6.155z"/><path fill-opacity=".1" d="M71.348 34.116v62.696a5.403 5.403 0 0 1-3.38 4.997 5.065 5.065 0 0 1-1.999.411H30.198V31.667h5.878v-2.939h29.893a5.399 5.399 0 0 1 5.379 5.388z"/><path fill-opacity=".2" d="M68.409 37.055v62.696a4.794 4.794 0 0 1-.441 2.058 5.356 5.356 0 0 1-4.938 3.342H30.198V31.667H63.03a4.945 4.945 0 0 1 2.44.617 5.346 5.346 0 0 1 2.939 4.771z"/><path fill-opacity=".2" d="M68.409 37.055v56.817a5.426 5.426 0 0 1-5.379 5.4H30.198V31.667H63.03a4.945 4.945 0 0 1 2.44.617 5.346 5.346 0 0 1 2.939 4.771z"/><path fill-opacity=".2" d="M65.47 37.055v56.817a5.407 5.407 0 0 1-5.379 5.4H30.198V31.667h29.893a5.383 5.383 0 0 1 5.379 5.385v.003z"/><path fill="url(#c)" d="M6.192 31.667h53.89a5.388 5.388 0 0 1 5.388 5.388v53.89a5.389 5.389 0 0 1-5.388 5.388H6.192a5.388 5.388 0 0 1-5.388-5.388v-53.89a5.388 5.388 0 0 1 5.388-5.388z"/><path fill="#fff" d="M17.644 54.265a15.674 15.674 0 0 1 6.155-6.799 18.605 18.605 0 0 1 9.779-2.451 17.312 17.312 0 0 1 9.05 2.325 15.517 15.517 0 0 1 5.987 6.496 20.967 20.967 0 0 1 2.099 9.553 22.13 22.13 0 0 1-2.16 9.993 15.91 15.91 0 0 1-6.173 6.723 18.004 18.004 0 0 1-9.388 2.386 17.689 17.689 0 0 1-9.25-2.351 15.77 15.77 0 0 1-6.067-6.508 20.471 20.471 0 0 1-2.122-9.438 22.72 22.72 0 0 1 2.09-9.929zm6.56 15.96a10.173 10.173 0 0 0 3.463 4.474 9.05 9.05 0 0 0 5.408 1.629 9.473 9.473 0 0 0 5.773-1.682 9.752 9.752 0 0 0 3.363-4.473 17.364 17.364 0 0 0 1.072-6.241 18.99 18.99 0 0 0-1.011-6.319 9.99 9.99 0 0 0-3.256-4.662 8.948 8.948 0 0 0-5.723-1.764 9.332 9.332 0 0 0-5.535 1.643 10.26 10.26 0 0 0-3.527 4.512 17.926 17.926 0 0 0-.024 12.889l-.003-.006z"/><path fill="#50d9ff" d="M94.863 22.849h26.454v26.454H94.863z"/></g><defs><linearGradient id="b" x1="0" x2="1" y1="0" y2="0" gradientTransform="rotate(90 5.879 72.818) scale(55.8476)" gradientUnits="userSpaceOnUse"><stop offset="0" stop-color="#35b8f1"/><stop offset="1" stop-color="#28a8ea"/></linearGradient><linearGradient id="c" x1="0" x2="1" y1="0" y2="0" gradientTransform="rotate(59.999 -17.76 24.154) scale(84.3928)" gradientUnits="userSpaceOnUse"><stop offset="0" stop-color="#1784d9"/><stop offset=".5" stop-color="#107ad5"/><stop offset="1" stop-color="#0a63c9"/></linearGradient></defs></svg>