<svg xmlns="http://www.w3.org/2000/svg" fill-rule="evenodd" stroke-linejoin="round" stroke-miterlimit="2" clip-rule="evenodd" viewBox="0 0 128 128"><g fill-rule="nonzero"><path fill="#00a1e0" d="M53.239 28.983c4.137-4.284 9.899-6.993 16.252-6.993 8.471 0 15.81 4.728 19.749 11.721 3.399-1.526 7.191-2.364 11.18-2.364 15.268 0 27.58 12.461 27.58 27.827C128 74.539 115.638 87 100.42 87c-1.871 0-3.694-.197-5.417-.542C91.555 92.614 84.956 96.8 77.371 96.8c-3.152 0-6.156-.738-8.815-2.019-3.497 8.225-11.673 14.036-21.178 14.036-9.899 0-18.37-6.254-21.62-15.07a21.742 21.742 0 0 1-4.384.443C9.554 94.19 0 84.537 0 72.569a21.642 21.642 0 0 1 10.687-18.714c-1.33-3.005-2.068-6.354-2.068-9.9-.05-13.642 11.13-24.772 24.822-24.772a24.818 24.818 0 0 1 19.798 9.8"/><path fill="#fff" d="m18.518 65.674.542-1.428c.098-.246.246-.148.344-.098.148.098.247.147.444.295 1.526.985 2.955.985 3.398.985 1.133 0 1.871-.591 1.871-1.428v-.049c0-.887-1.083-1.231-2.364-1.625l-.295-.099c-1.724-.492-3.595-1.231-3.595-3.398v-.049c0-2.069 1.674-3.546 4.087-3.546h.247c1.428 0 2.758.394 3.743 1.034.098.049.197.148.147.295-.049.148-.492 1.281-.541 1.429-.099.246-.345.098-.345.098-.887-.492-2.216-.837-3.349-.837-1.034 0-1.675.542-1.675 1.28v.05c0 .837 1.133 1.231 2.414 1.625l.246.049c1.724.542 3.546 1.281 3.546 3.398v.05c0 2.265-1.625 3.644-4.236 3.644-1.28 0-2.511-.197-3.841-.887-.246-.147-.493-.246-.739-.443-.049-.098-.148-.148-.049-.345zm38.415 0 .541-1.428c.099-.246.296-.148.345-.098.148.098.246.147.443.295 1.527.985 2.955.985 3.399.985 1.132 0 1.871-.591 1.871-1.428v-.049c0-.887-1.083-1.231-2.364-1.625l-.295-.099c-1.724-.492-3.596-1.231-3.596-3.398v-.049c0-2.069 1.675-3.546 4.088-3.546h.246c1.429 0 2.758.394 3.743 1.034.099.049.197.148.148.295-.049.148-.492 1.281-.542 1.429-.098.246-.344.098-.344.098-.887-.492-2.217-.837-3.349-.837-1.035 0-1.675.542-1.675 1.28v.05c0 .837 1.133 1.231 2.413 1.625l.247.049c1.723.542 3.546 1.281 3.546 3.398v.05c0 2.265-1.626 3.644-4.236 3.644-1.28 0-2.512-.197-3.841-.887-.247-.147-.493-.246-.739-.443 0-.098-.099-.148-.049-.345zm28.466-6.747c.197.739.345 1.527.345 2.364 0 .838-.099 1.626-.345 2.364a5.086 5.086 0 0 1-.985 1.921 4.745 4.745 0 0 1-1.674 1.28c-.69.296-1.478.444-2.364.444-.887 0-1.675-.148-2.364-.444a4.342 4.342 0 0 1-1.675-1.28 5.086 5.086 0 0 1-.985-1.921c-.197-.738-.345-1.526-.345-2.364 0-.837.099-1.625.345-2.364a5.082 5.082 0 0 1 .985-1.92 4.754 4.754 0 0 1 1.675-1.281 5.956 5.956 0 0 1 2.364-.492c.886 0 1.674.147 2.364.492a4.358 4.358 0 0 1 1.674 1.281c.443.541.788 1.182.985 1.92zm-2.216 2.315c0-1.28-.246-2.265-.69-2.955-.443-.689-1.182-1.034-2.117-1.034-.985 0-1.675.345-2.118 1.034-.443.69-.69 1.675-.69 2.955 0 1.281.247 2.266.69 3.004.443.69 1.133 1.034 2.118 1.034.985 0 1.674-.344 2.117-1.034.493-.689.69-1.723.69-3.004zm20.241 3.694.542 1.477c.049.197-.098.246-.098.246-.838.345-1.97.542-3.103.542-1.921 0-3.349-.542-4.334-1.625-.985-1.084-1.478-2.561-1.478-4.383 0-.837.099-1.625.345-2.364.246-.739.591-1.379 1.084-1.921a5.1 5.1 0 0 1 1.773-1.28 6.25 6.25 0 0 1 2.462-.493c.64 0 1.182.049 1.625.099.493.098 1.182.246 1.478.394.049 0 .197.098.148.246-.197.591-.345.985-.542 1.477-.099.247-.246.148-.246.148-.739-.246-1.429-.345-2.315-.345-1.084 0-1.921.345-2.413 1.084-.542.689-.838 1.625-.838 2.906 0 1.379.345 2.364.936 3.004.591.64 1.428.935 2.512.935.443 0 .837-.049 1.182-.098a4.068 4.068 0 0 0 1.034-.296c-.049.099.148.05.246.247zm11.18-6.452c.493 1.675.246 3.103.197 3.201 0 .197-.197.197-.197.197h-7.437c.05 1.133.296 1.921.887 2.463.542.541 1.379.886 2.561.886 1.773 0 2.512-.345 3.053-.542 0 0 .197-.049.296.148l.492 1.379c.099.246 0 .296-.049.345-.443.246-1.576.739-3.743.739-1.034 0-1.97-.148-2.709-.444-.738-.295-1.379-.689-1.871-1.231-.493-.542-.837-1.182-1.084-1.871-.246-.739-.344-1.527-.344-2.364s.098-1.625.344-2.364a5.086 5.086 0 0 1 .985-1.921 4.526 4.526 0 0 1 1.724-1.28c.69-.345 1.527-.493 2.463-.493.788 0 1.526.148 2.117.443.444.197.936.542 1.429 1.084.246.197.689.936.886 1.625zm-7.387 1.576h5.269c-.049-.689-.197-1.28-.492-1.773-.443-.689-1.084-1.083-2.069-1.083-.985 0-1.674.394-2.117 1.083-.296.443-.444 1.034-.591 1.773zM55.16 58.484c.492 1.675.246 3.103.246 3.201 0 .197-.197.197-.197.197h-7.437c.049 1.133.296 1.921.887 2.463.541.541 1.379.886 2.561.886 1.773 0 2.511-.345 3.053-.542 0 0 .197-.049.296.148l.492 1.379c.099.246 0 .296-.049.345-.443.246-1.576.739-3.743.739-1.034 0-1.97-.148-2.709-.444-.739-.295-1.379-.689-1.871-1.231-.493-.542-.838-1.182-1.084-1.871-.246-.739-.345-1.527-.345-2.364s.099-1.625.345-2.364a5.086 5.086 0 0 1 .985-1.921 4.51 4.51 0 0 1 1.724-1.28c.689-.345 1.527-.493 2.462-.493.788 0 1.527.148 2.118.443.443.197.936.542 1.428 1.084.197.197.69.936.838 1.625zm-7.388 1.576h5.319c-.049-.689-.197-1.28-.492-1.773-.444-.689-1.084-1.083-2.069-1.083-.985 0-1.674.394-2.118 1.083-.344.443-.492 1.034-.64 1.773zm-13.051-.394s.591.049 1.231.148v-.296c0-.985-.197-1.477-.591-1.773-.394-.295-1.034-.492-1.822-.492 0 0-1.822 0-3.25.739-.05.049-.099.049-.099.049s-.197.049-.246-.099l-.542-1.428c-.098-.197.049-.295.049-.295.69-.542 2.266-.838 2.266-.838.542-.098 1.428-.197 1.97-.197 1.477 0 2.61.345 3.398 1.035.788.689 1.182 1.773 1.182 3.299v6.797s0 .197-.148.246c0 0-.295.098-.541.148-.247.049-1.133.246-1.872.344-.739.148-1.477.197-2.265.197-.739 0-1.379-.049-1.97-.197-.591-.147-1.084-.344-1.527-.64a3.324 3.324 0 0 1-.985-1.182c-.246-.443-.345-1.034-.345-1.674 0-.64.148-1.231.394-1.724.246-.492.64-.886 1.084-1.231.443-.345.985-.542 1.526-.739a7.383 7.383 0 0 1 1.823-.246c.591.049.985.049 1.28.049zm-2.955 5.22s.69.542 2.167.444a14.162 14.162 0 0 0 2.019-.247v-3.398s-.935-.147-2.019-.147c-1.527 0-2.167.541-2.167.541-.443.296-.64.788-.64 1.429 0 .394.098.738.246.984.049.099.099.197.394.394zm62.793-9.012c-.049.197-.443 1.231-.541 1.576-.05.148-.148.197-.296.197 0 0-.443-.099-.837-.099-.246 0-.64.05-.985.148-.345.099-.64.296-.936.542-.295.246-.492.64-.64 1.083-.148.444-.246 1.182-.246 1.97v5.516c0 .148-.099.246-.247.246h-1.97c-.147 0-.246-.098-.246-.246V55.726c0-.148.099-.246.197-.246h1.921c.148 0 .197.098.197.246v.887c.295-.394.788-.739 1.231-.936.443-.197.985-.345 1.921-.296.492.05 1.133.148 1.231.197.197.05.296.099.246.296zm-18.271-5.122c.049 0 .197.098.148.246l-.591 1.576c-.05.099-.099.197-.345.099-.049 0-.148-.05-.394-.099-.148-.049-.394-.049-.591-.049-.296 0-.542.049-.788.098-.246.05-.443.197-.64.394a2.476 2.476 0 0 0-.542.788 7.35 7.35 0 0 0-.394 1.675h2.364c.197 0 .246.098.246.246l-.295 1.527c-.05.246-.247.197-.247.197h-2.462l-1.576 9.505c-.197.985-.394 1.822-.64 2.512-.247.689-.542 1.182-.985 1.674-.394.443-.838.788-1.379.936-.493.197-1.133.295-1.823.295-.344 0-.689 0-1.083-.098a2.842 2.842 0 0 1-.69-.197c-.098-.049-.147-.148-.098-.296.049-.147.492-1.329.542-1.526.098-.197.246-.099.246-.099.148.049.246.099.394.148.197.049.394.049.591.049.345 0 .64-.049.886-.148.296-.098.493-.295.69-.541.197-.247.345-.591.542-1.035.147-.443.295-1.083.443-1.822l1.674-9.308h-1.625c-.197 0-.246-.098-.246-.246l.295-1.527c.05-.246.247-.197.247-.197h1.674l.099-.492c.246-1.478.738-2.611 1.477-3.349.739-.739 1.822-1.133 3.152-1.133.394 0 .739.049 1.034.098.197-.049.444 0 .69.099zM43.093 66.758c0 .148-.098.246-.197.246h-1.969c-.148 0-.197-.098-.197-.246V50.949c0-.099.098-.246.197-.246h1.969c.148 0 .197.098.197.246v15.809z"/></g></svg>