<svg xmlns="http://www.w3.org/2000/svg" fill-rule="evenodd" stroke-linejoin="round" stroke-miterlimit="2" clip-rule="evenodd" viewBox="0 0 128 128"><path fill="#81b5a1" d="M64.391 6.632C29.043 6.711 0 35.818 0 71.166a64.556 64.556 0 0 0 19.899 46.608c4.519 4.315 11.585 4.682 16.528.86 16.253-12.055 38.636-12.055 54.89 0 4.991 3.951 12.217 3.58 16.778-.86A64.56 64.56 0 0 0 128 71.16c0-35.053-28.56-64.026-63.609-64.528m-.36 96.55c-.338.011-.675.017-1.013.017-17.151 0-31.264-14.113-31.264-31.264 0-.269.004-.537.011-.805a32.057 32.057 0 0 1-.018-1.074c0-17.603 14.485-32.088 32.088-32.088s32.088 14.485 32.088 32.088c0 .358-.006.716-.018 1.074.007.279.011.557.011.835 0 17.132-14.097 31.228-31.228 31.228-.279 0-.557-.003-.835-.011"/></svg>